# xmcd
#
# Track frame offsets:
#	150
#	15292
#	36000
#	54770
#	71470
#	88157
#	106010
#	122897
#	143220
#	158352
#	179057
#	197792
#	214492
#	231160
#	249005
#	265867
#
# Disc length: 3816 seconds
#
# Revision: 0
# Processed by: cddbd v1.5.2PL0 Copyright (c) Steve Scherf et al.
# Submitted via: audiograbber 1.83.01
#
DISCID=d10ee610
DTITLE=Various Artist - SC3090
DYEAR=1900
DGENRE=Karaoke
TTITLE0=Black, Clint - Loosen Up My Strings
TTITLE1=Lonestar - Everything's Changed
TTITLE2=Alan Jackson - I'll Go On Loving You
TTITLE3=Ty Herndon - It Must Be Love
TTITLE4=Aaron Tippin - For You I Will
TTITLE5=John Berry - Better Than A Biscuit
TTITLE6=Keith Harling - Coming Back For You
TTITLE7=Womack, Lee Ann - A Little Past Little Rock
TTITLE8=Black, Clint - Loosen Up My Strings
TTITLE9=Lonestar - Everything's Changed
TTITLE10=Alan Jackson - I'll Go On Loving You
TTITLE11=Ty Herndon - It Must Be Love
TTITLE12=Aaron Tippin - For You I Will
TTITLE13=John Berry - Better Than A Biscuit
TTITLE14=Keith Harling - Coming Back For You
TTITLE15=Womack, Lee Ann - A Little Past Little Rock
EXTD=
EXTT0=
EXTT1=
EXTT2=
EXTT3=
EXTT4=
EXTT5=
EXTT6=
EXTT7=
EXTT8=
EXTT9=
EXTT10=
EXTT11=
EXTT12=
EXTT13=
EXTT14=
EXTT15=
PLAYORDER=
